<?xml version="1.0" standalone="no"?>
<!DOCTYPE svg PUBLIC "-//W3C//DTD SVG 20010904//EN"
 "http://www.w3.org/TR/2001/REC-SVG-20010904/DTD/svg10.dtd">
<svg version="1.0" xmlns="http://www.w3.org/2000/svg"
 width="386.000000pt" height="402.000000pt" viewBox="0 0 386.000000 402.000000"
 preserveAspectRatio="xMidYMid meet">

<g transform="translate(0.000000,402.000000) scale(0.100000,-0.100000)"
fill="#000000" stroke="none">
<path d="M630 3519 c-129 -5 -251 -9 -270 -11 -32 -3 -22 -10 135 -97 94 -52
172 -96 174 -98 3 -2 -8 -56 -24 -121 -40 -166 -40 -170 -19 -193 15 -16 19
-37 19 -102 0 -70 5 -90 30 -140 55 -110 146 -167 276 -175 67 -4 82 -1 134
23 70 34 135 95 160 153 16 35 26 44 57 52 21 6 42 18 46 28 5 9 26 86 48 170
l38 152 111 -6 c60 -4 139 -10 175 -14 36 -4 66 -6 68 -5 3 2 -63 44 -400 254
l-227 141 -148 -2 c-81 0 -254 -5 -383 -9z"/>
<path d="M222 3028 c-20 -20 -14 -80 22 -220 41 -158 79 -267 181 -527 196
-498 224 -676 225 -1396 0 -425 26 -720 72 -827 40 -93 62 -55 89 157 41 308
116 629 213 915 25 74 42 136 37 138 -6 2 -4 16 4 35 7 18 28 68 46 112 224
553 510 1075 798 1458 44 59 77 107 73 107 -9 0 -171 -93 -312 -178 -47 -28
-109 -70 -138 -94 -93 -76 -267 -193 -349 -236 -241 -125 -431 -107 -584 56
-65 68 -96 115 -229 341 -69 118 -109 171 -128 171 -4 0 -13 -5 -20 -12z"/>
</g>
</svg>
